<?xml version="1.0" encoding="UTF-8" standalone="no"?>
<svg
   xmlns:dc="http://purl.org/dc/elements/1.1/"
   xmlns:cc="http://creativecommons.org/ns#"
   xmlns:rdf="http://www.w3.org/1999/02/22-rdf-syntax-ns#"
   xmlns:svg="http://www.w3.org/2000/svg"
   xmlns="http://www.w3.org/2000/svg"
   xmlns:xlink="http://www.w3.org/1999/xlink"
   xmlns:sodipodi="http://sodipodi.sourceforge.net/DTD/sodipodi-0.dtd"
   xmlns:inkscape="http://www.inkscape.org/namespaces/inkscape"
   inkscape:export-ydpi="512"
   inkscape:export-xdpi="512"
   inkscape:export-filename="/home/alexis/Desktop/appimage-cli-tool.png"
   inkscape:version="1.0 (4035a4f, 2020-05-01)"
   sodipodi:docname="appimage-cli-tool.svg"
   id="svg16"
   version="1"
   height="48"
   width="48">
  <metadata
     id="metadata22">
    <rdf:RDF>
      <cc:Work
         rdf:about="">
        <dc:format>image/svg+xml</dc:format>
        <dc:type
           rdf:resource="http://purl.org/dc/dcmitype/StillImage" />
        <dc:title></dc:title>
      </cc:Work>
    </rdf:RDF>
  </metadata>
  <defs
     id="defs20">
    <radialGradient
       inkscape:collect="always"
       xlink:href="#linearGradient3575"
       id="radialGradient2985"
       gradientUnits="userSpaceOnUse"
       gradientTransform="matrix(0,0.87942747,-1.3651703,8.0617438e-4,-32.740282,-36.124419)"
       cx="48.42384"
       cy="-48.027504"
       fx="48.42384"
       fy="-48.027504"
       r="38.212933" />
    <linearGradient
       id="linearGradient3575">
      <stop
         id="stop3577"
         style="stop-color:#fafafa;stop-opacity:1"
         offset="0" />
      <stop
         id="stop3579"
         style="stop-color:#e6e6e6;stop-opacity:1"
         offset="1" />
    </linearGradient>
    <linearGradient
       inkscape:collect="always"
       xlink:href="#linearGradient4222"
       id="linearGradient2979"
       gradientUnits="userSpaceOnUse"
       gradientTransform="matrix(0,0.31750606,-0.29819824,0,41.123771,8.009247)"
       x1="7.6485429"
       y1="26.437023"
       x2="41.861729"
       y2="26.437023" />
    <linearGradient
       id="linearGradient4222">
      <stop
         id="stop4224"
         style="stop-color:#ffffff;stop-opacity:1"
         offset="0" />
      <stop
         id="stop4226"
         style="stop-color:#ffffff;stop-opacity:0"
         offset="1" />
    </linearGradient>
    <linearGradient
       gradientTransform="matrix(0.82432226,0,0,0.85697407,13.502121,2.7242078)"
       inkscape:collect="always"
       xlink:href="#linearGradient4222"
       id="linearGradient2975"
       gradientUnits="userSpaceOnUse"
       x1="24.3125"
       y1="22.96875"
       x2="24.3125"
       y2="41.03125" />
  </defs>
  <sodipodi:namedview
     inkscape:current-layer="svg16"
     inkscape:window-maximized="1"
     inkscape:window-y="0"
     inkscape:window-x="0"
     inkscape:cy="21.825752"
     inkscape:cx="24"
     inkscape:zoom="12.020833"
     showgrid="false"
     id="namedview18"
     inkscape:window-height="741"
     inkscape:window-width="1440"
     inkscape:pageshadow="2"
     inkscape:pageopacity="0"
     guidetolerance="10"
     gridtolerance="10"
     objecttolerance="10"
     borderopacity="1"
     bordercolor="#666666"
     pagecolor="#ffffff" />
  <rect
     id="rect2"
     ry="2"
     rx="2"
     y="7"
     x="4"
     height="36"
     width="40"
     style="opacity:.2" />
  <rect
     id="rect4"
     ry="2"
     rx="2"
     y="6"
     x="4"
     height="36"
     width="40"
     style="fill:#5d5544" />
  <path
     id="path6"
     d="m6 6c-1.108 0-2 0.892-2 2v1c0-1.108 0.892-2 2-2h36c1.108 0 2 0.892 2 2v-1c0-1.108-0.892-2-2-2h-36z"
     style="opacity:.1;fill:#ffffff" />
  <path
     id="path8"
     d="m11 15h0.5c0.277 0 0.5 0.223 0.5 0.5s-0.2233 0.51287-0.5 0.5h-0.5zm-1.5-2h0.5v1h-0.5c-0.277 0-0.5-0.223-0.5-0.5s0.223-0.5 0.5-0.5zm0.5-2v1h-0.5c-0.831 0-1.5 0.669-1.5 1.5s0.669 1.5 1.5 1.5h0.5v1h-1.9082c0.206 0.582 0.754 1 1.4082 1h0.5v1h1v-1h0.5c0.831 0 1.5-0.669 1.5-1.5s-0.669-1.5-1.5-1.5h-0.5v-1h1.9082c-0.206-0.582-0.754-1-1.408-1h-0.5v-1h-1z"
     style="opacity:.2" />
  <path
     id="path10"
     d="m11 14h0.5c0.277 0 0.5 0.223 0.5 0.5s-0.223 0.513-0.5 0.5h-0.5zm-1.5-2h0.5v1h-0.5c-0.277 0-0.5-0.223-0.5-0.5s0.223-0.5 0.5-0.5zm0.5-2v1h-0.5c-0.831 0-1.5 0.669-1.5 1.5s0.669 1.5 1.5 1.5h0.5v1h-1.9082c0.206 0.582 0.754 1 1.4082 1h0.5v1h1v-1h0.5c0.831 0 1.5-0.669 1.5-1.5s-0.669-1.5-1.5-1.5h-0.5v-1h1.908c-0.206-0.582-0.754-1-1.408-1h-0.5v-1z"
     style="fill:#ffbe23" />
  <rect
     id="rect12"
     y="10"
     x="15"
     height="7"
     width="5"
     style="opacity:.5;fill:#ffbe23" />
  <path
     id="path14"
     d="m15 17v1h5v-1z"
     style="opacity:.2" />
  <path
     style="display:inline;overflow:visible;visibility:visible;opacity:0.05;fill:#000000;fill-opacity:1;fill-rule:nonzero;stroke:none;stroke-width:0.841994;marker:none;enable-background:accumulate"
     id="path4294-1"
     d="m 30.812888,8.696246 a 1.6622547,1.7280974 0 0 0 -1.674404,1.740728 v 3.401116 h -0.953122 a 1.6622547,1.7280974 0 0 0 -1.236484,2.892288 l 4.173131,4.927601 c -0.05203,0.09493 -0.147326,0.210843 -0.18032,0.294585 -0.161483,0.409853 -0.206081,0.716884 -0.206081,1.044437 v 0.107122 l -0.07728,-0.08034 c -0.229308,-0.238392 -0.494042,-0.449708 -0.901603,-0.615951 -0.20378,-0.08312 -0.439605,-0.151687 -0.798562,-0.133902 -0.358956,0.01779 -0.868881,0.180223 -1.210723,0.535608 l -1.262244,1.312243 c -0.341837,0.355376 -0.498092,0.885506 -0.515201,1.25868 -0.01711,0.373174 0.04885,0.618338 0.1288,0.830194 0.159911,0.42371 0.36317,0.698922 0.592482,0.937315 l 0.07728,0.08033 h -0.10304 c -0.315071,0 -0.610405,0.04636 -1.004643,0.214245 -0.197118,0.08394 -0.44372,0.184239 -0.695522,0.455267 -0.251802,0.271027 -0.515201,0.783949 -0.515201,1.312242 v 1.87463 c 0,0.528295 0.2634,1.041214 0.515201,1.312242 0.251801,0.271026 0.498404,0.371328 0.695522,0.455267 0.394238,0.167879 0.689571,0.214243 1.004643,0.214243 h 0.10304 l -0.07728,0.08034 c -0.229306,0.238389 -0.432572,0.513609 -0.592482,0.937315 -0.07995,0.211853 -0.145907,0.457018 -0.1288,0.830193 0.01711,0.373176 0.173358,0.903301 0.515201,1.258681 l 1.262244,1.312242 c 0.341839,0.355385 0.851766,0.517822 1.210723,0.535609 0.358958,0.0178 0.594779,-0.05078 0.798562,-0.133903 0.407566,-0.166244 0.672293,-0.377554 0.901603,-0.61595 l 0.07728,-0.08035 v 0.107122 c 0,0.327553 0.0446,0.634585 0.206081,1.044437 0.08074,0.204927 0.17722,0.461297 0.437921,0.723072 0.260701,0.261776 0.754076,0.535609 1.262243,0.535609 h 1.803206 c 0.508166,0 1.001542,-0.273832 1.262243,-0.535609 0.260701,-0.261776 0.35718,-0.518144 0.437921,-0.723072 0.161481,-0.409852 0.206081,-0.716885 0.206081,-1.044437 v -0.107122 l 0.07728,0.08035 c 0.229306,0.238389 0.49404,0.449706 0.901603,0.61595 0.20378,0.08312 0.439604,0.151688 0.798562,0.133903 0.358957,-0.01779 0.868884,-0.180225 1.210723,-0.535609 l 1.262244,-1.312242 c 0.341843,-0.355379 0.498092,-0.885505 0.515201,-1.258681 0.01712,-0.373175 -0.04885,-0.618338 -0.1288,-0.830193 -0.15991,-0.423709 -0.363171,-0.698922 -0.592482,-0.937315 l -0.07728,-0.08034 h 0.10304 c 0.315073,0 0.610406,-0.04636 1.004644,-0.214243 0.197118,-0.08394 0.44372,-0.18424 0.695521,-0.455267 0.251802,-0.271029 0.515202,-0.783949 0.515202,-1.312242 v -1.87463 c 0,-0.528291 -0.2634,-1.041214 -0.515202,-1.312242 C 41.869758,27.626783 41.623158,27.526485 41.426039,27.442545 41.0318,27.274665 40.736467,27.2283 40.421395,27.2283 h -0.10304 l 0.07728,-0.08033 c 0.229308,-0.238391 0.432572,-0.51361 0.592482,-0.937315 0.07995,-0.211853 0.145907,-0.45702 0.1288,-0.830194 -0.01711,-0.373175 -0.173358,-0.9033 -0.515201,-1.25868 L 39.33947,22.809542 c -0.341837,-0.355382 -0.851764,-0.517823 -1.210723,-0.535609 -0.358959,-0.01779 -0.59478,0.05078 -0.798562,0.133903 -0.407567,0.166245 -0.672295,0.377557 -0.901603,0.615951 l -0.07728,0.08034 v -0.107121 c 0,-0.327552 -0.0446,-0.634584 -0.206081,-1.044437 -0.07511,-0.190634 -0.18805,-0.428644 -0.412161,-0.669512 l 3.88977,-4.552674 A 1.6622547,1.7280974 0 0 0 38.386349,13.83809 H 37.433227 V 10.436974 A 1.6622547,1.7280974 0 0 0 35.758822,8.696246 Z m 2.730568,20.808402 c 0.352066,0 0.618241,0.276721 0.618241,0.64273 0,0.36601 -0.266175,0.642731 -0.618241,0.642731 -0.352063,0 -0.618242,-0.276723 -0.618242,-0.642731 0,-0.366008 0.266179,-0.64273 0.618242,-0.64273 z" />
  <path
     style="display:inline;overflow:visible;visibility:visible;opacity:0.05;fill:#000000;fill-opacity:1;fill-rule:nonzero;stroke:none;stroke-width:0.841994;marker:none;enable-background:accumulate"
     id="path4294"
     d="m 30.735608,9.606781 a 0.79452356,0.82599502 0 0 0 -0.721282,0.830193 v 4.311652 h -1.828964 a 0.79452356,0.82599502 0 0 0 -0.592483,1.365802 l 4.765614,5.597111 c -0.130914,0.0528 -0.281784,0.0815 -0.360642,0.160683 -0.139442,0.140018 -0.208529,0.277162 -0.2576,0.401707 -0.09814,0.249091 -0.128801,0.485687 -0.128801,0.723072 v 1.419363 c -0.206564,0.07698 -0.398047,0.169058 -0.592481,0.267805 l -0.978882,-1.017657 c -0.164578,-0.171095 -0.347397,-0.301737 -0.592483,-0.401708 -0.122542,-0.04999 -0.271756,-0.08985 -0.46368,-0.08033 -0.191925,0.0096 -0.441698,0.08427 -0.618242,0.267805 l -1.262244,1.312241 c -0.176543,0.183537 -0.248453,0.443203 -0.2576,0.64273 -0.0092,0.199528 0.0292,0.354652 0.07728,0.482049 0.09616,0.254796 0.221821,0.444854 0.386401,0.615949 l 0.978883,1.017658 c -0.09499,0.202135 -0.18355,0.401202 -0.257601,0.615949 h -1.365284 c -0.228339,0 -0.455922,0.03187 -0.695522,0.133903 -0.1198,0.05101 -0.251718,0.122837 -0.386401,0.267805 -0.134683,0.144967 -0.257601,0.397661 -0.257601,0.669511 v 1.87463 c 0,0.27185 0.122918,0.524545 0.257601,0.669511 0.134682,0.144966 0.266602,0.216789 0.386401,0.267805 0.2396,0.102029 0.467182,0.133901 0.695522,0.133901 h 1.365284 c 0.07405,0.214747 0.162615,0.413815 0.257601,0.61595 l -0.978885,1.017652 c -0.164575,0.171095 -0.290239,0.361156 -0.386401,0.61595 -0.04808,0.127397 -0.08642,0.28252 -0.07728,0.482048 0.0092,0.199528 0.08106,0.459194 0.2576,0.642731 l 1.262244,1.312242 c 0.176543,0.183539 0.426316,0.258295 0.618242,0.267804 0.191925,0.0096 0.341137,-0.03035 0.46368,-0.08034 0.245088,-0.09997 0.427904,-0.230608 0.592483,-0.401707 l 0.978882,-1.017657 c 0.194434,0.09875 0.385918,0.190821 0.592481,0.267805 v 1.419363 c 0,0.237384 0.03066,0.473982 0.128801,0.723072 0.04907,0.124545 0.118158,0.261689 0.2576,0.401706 0.139444,0.140018 0.38251,0.267805 0.644002,0.267805 h 1.803206 c 0.261491,0 0.504558,-0.127787 0.644001,-0.267805 0.139443,-0.140018 0.208529,-0.277161 0.257601,-0.401706 0.09814,-0.24909 0.128801,-0.485689 0.128801,-0.723072 v -1.419363 c 0.206563,-0.07698 0.398047,-0.169057 0.592481,-0.267805 l 0.978882,1.017657 c 0.164577,0.171094 0.347396,0.301737 0.592483,0.401707 0.122542,0.04999 0.271755,0.08986 0.46368,0.08034 0.191926,-0.0096 0.441698,-0.08427 0.618242,-0.267804 l 1.262244,-1.312242 c 0.176546,-0.183536 0.248453,-0.443203 0.2576,-0.642731 0.0092,-0.199528 -0.0292,-0.35465 -0.07728,-0.482048 -0.09616,-0.254795 -0.221821,-0.444853 -0.386401,-0.61595 l -0.978883,-1.017657 c 0.09499,-0.202134 0.18355,-0.401203 0.257601,-0.615949 h 1.365283 c 0.228341,0 0.455923,-0.03187 0.695523,-0.133902 0.1198,-0.05101 0.251718,-0.122839 0.386401,-0.267805 0.134682,-0.144966 0.2576,-0.397662 0.2576,-0.669511 v -1.87463 c 0,-0.271849 -0.122918,-0.524544 -0.2576,-0.669511 -0.134683,-0.144968 -0.266601,-0.216791 -0.386401,-0.267805 -0.239601,-0.10203 -0.467183,-0.133902 -0.695523,-0.133902 h -1.365283 c -0.07405,-0.214747 -0.162616,-0.413816 -0.257601,-0.61595 l 0.978887,-1.017657 c 0.164576,-0.171095 0.290239,-0.361157 0.386401,-0.61595 0.04808,-0.127397 0.08642,-0.28252 0.07728,-0.482048 -0.0092,-0.199528 -0.08106,-0.459193 -0.2576,-0.64273 L 38.72123,23.452273 c -0.176542,-0.183539 -0.426315,-0.258294 -0.618242,-0.267805 -0.191926,-0.0096 -0.341137,0.03035 -0.46368,0.08033 -0.245089,0.09997 -0.427905,0.230609 -0.592483,0.401707 l -0.978882,1.017657 c -0.194434,-0.09875 -0.385918,-0.19082 -0.592481,-0.267805 v -1.419362 c 0,-0.237385 -0.03066,-0.473982 -0.128801,-0.723073 C 35.297591,22.149377 35.228504,22.012234 35.08906,21.872215 34.949616,21.732197 34.70655,21.60441 34.445059,21.60441 H 34.316258 L 38.97883,16.114428 A 0.79452356,0.82599502 0 0 0 38.386349,14.748626 H 36.557384 V 10.436974 A 0.79452356,0.82599502 0 0 0 35.758822,9.606781 h -4.945934 a 0.79452356,0.82599502 0 0 0 -0.07728,0 z m 2.807848,18.987332 c 0.826064,0 1.494084,0.694481 1.494084,1.553265 0,0.858784 -0.66802,1.553266 -1.494084,1.553266 -0.826062,0 -1.494084,-0.694483 -1.494084,-1.553266 0,-0.858783 0.668022,-1.553265 1.494084,-1.553265 z" />
  <path
     style="display:inline;overflow:visible;visibility:visible;fill:url(#radialGradient2985);fill-opacity:1;fill-rule:nonzero;stroke:none;stroke-width:0.841994;marker:none;enable-background:accumulate"
     id="path2317"
     d="m 30.812888,10.436974 v 5.141845 h -2.627526 l 5.100493,5.998818 5.100494,-5.998818 h -2.627527 v -5.141845 z m 1.828965,11.997637 c -0.142518,0 -0.231841,0.252741 -0.231841,0.56239 v 1.954972 c -0.573769,0.135827 -1.114109,0.379098 -1.597124,0.696291 L 29.473365,24.255682 C 29.262752,24.036727 29.033178,23.93667 28.932403,24.041438 L 27.67016,25.35368 c -0.100777,0.104767 -0.0045,0.343434 0.206081,0.562389 l 1.339523,1.392583 c -0.305107,0.502146 -0.539109,1.06389 -0.669762,1.660387 h -1.880485 c -0.297851,0 -0.540961,0.09286 -0.540961,0.241024 v 1.87463 c 0,0.148164 0.24311,0.241025 0.540961,0.241025 h 1.880485 c 0.130653,0.596496 0.364655,1.15824 0.669762,1.660387 l -1.339523,1.392582 c -0.210613,0.218956 -0.306858,0.457622 -0.206081,0.562389 l 1.262243,1.312243 c 0.100775,0.104768 0.330349,0.0047 0.540962,-0.214245 l 1.339523,-1.392582 c 0.483015,0.317191 1.023355,0.560462 1.597124,0.696292 v 1.954971 c 0,0.309648 0.08932,0.562389 0.231841,0.562389 h 1.803206 c 0.142519,0 0.23184,-0.252742 0.23184,-0.562389 v -1.954971 c 0.57377,-0.13583 1.114109,-0.379101 1.597125,-0.696292 l 1.339523,1.392582 c 0.210613,0.218955 0.440186,0.319013 0.540961,0.214245 l 1.262244,-1.312243 c 0.100777,-0.104766 0.0045,-0.343433 -0.206081,-0.562389 l -1.339523,-1.392582 c 0.305106,-0.502147 0.539109,-1.063891 0.669762,-1.660387 h 1.880484 c 0.297853,0 0.540962,-0.09286 0.540962,-0.241025 v -1.87463 c 0,-0.148164 -0.243109,-0.241024 -0.540962,-0.241024 H 38.54091 c -0.130653,-0.596497 -0.364656,-1.158241 -0.669762,-1.660387 l 1.339523,-1.392583 c 0.210612,-0.218955 0.306858,-0.457623 0.206081,-0.562389 l -1.262244,-1.312242 c -0.100775,-0.10477 -0.330348,-0.0047 -0.540961,0.214244 l -1.339523,1.392582 C 35.791008,25.331071 35.250669,25.0878 34.676899,24.951973 v -1.954972 c 0,-0.309649 -0.08932,-0.56239 -0.23184,-0.56239 z m 0.901603,5.329308 c 1.260072,0 2.292646,1.073475 2.292646,2.383459 0,1.309984 -1.032574,2.38346 -2.292646,2.38346 -1.260071,0 -2.292646,-1.073476 -2.292646,-2.38346 0,-1.309984 1.032575,-2.383459 2.292646,-2.383459 z" />
  <path
     style="display:inline;overflow:visible;visibility:visible;fill:none;stroke:url(#linearGradient2979);stroke-width:0.839056;stroke-linecap:butt;stroke-linejoin:miter;stroke-miterlimit:4;stroke-dasharray:none;stroke-dashoffset:0;stroke-opacity:1;marker:none"
     id="path2777"
     d="m 37.346777,15.978742 -4.060922,4.894101 -4.152038,-4.865537 h 2.091233 v -5.141844 h 4.121611 v 5.141844 z" />
  <path
     style="display:inline;overflow:visible;visibility:visible;fill:none;stroke:url(#linearGradient2975);stroke-width:0.84049;stroke-opacity:1;marker:none;enable-background:accumulate"
     id="path4243"
     d="m 32.822174,22.836318 c -0.0096,0.04612 -0.02576,0.08587 -0.02576,0.160683 v 1.954972 a 0.39720353,0.41293695 0 0 1 -0.309121,0.401707 c -0.526303,0.124589 -1.02086,0.348883 -1.468324,0.642729 a 0.39720353,0.41293695 0 0 1 -0.489441,-0.05356 l -1.339524,-1.392583 c -0.04397,-0.04572 -0.06887,-0.05684 -0.10304,-0.08035 l -1.004643,1.044437 c 0.0226,0.03552 0.0333,0.06141 0.07728,0.107123 l 1.339524,1.392583 a 0.39720353,0.41293695 0 0 1 0.05152,0.508827 c -0.28265,0.465189 -0.498397,0.979335 -0.618242,1.526485 a 0.39720353,0.41293695 0 0 1 -0.386398,0.32137 H 26.66552 c -0.07195,0 -0.110207,0.01679 -0.15456,0.02678 v 1.499704 c 0.04435,0.01 0.0826,0.02677 0.15456,0.02677 h 1.880485 a 0.39720353,0.41293695 0 0 1 0.386401,0.321365 c 0.119844,0.547151 0.335592,1.061296 0.618242,1.526485 a 0.39720353,0.41293695 0 0 1 -0.05152,0.508829 l -1.339524,1.392582 c -0.04397,0.04572 -0.05467,0.0716 -0.07728,0.107122 l 1.004643,1.044437 c 0.03416,-0.02349 0.05906,-0.03462 0.10304,-0.08034 l 1.339524,-1.392582 a 0.39720353,0.41293695 0 0 1 0.489441,-0.05356 c 0.447464,0.293846 0.94202,0.518138 1.468324,0.642731 a 0.39720353,0.41293695 0 0 1 0.309121,0.401706 v 1.954973 c 0,0.0748 0.01615,0.114573 0.02576,0.160682 h 1.442564 c 0.0096,-0.04611 0.02576,-0.08588 0.02576,-0.160682 V 35.34277 a 0.39720353,0.41293695 0 0 1 0.309121,-0.401706 c 0.526304,-0.124593 1.02086,-0.348885 1.468324,-0.642731 a 0.39720353,0.41293695 0 0 1 0.489441,0.05356 l 1.339524,1.392583 c 0.04397,0.04572 0.06887,0.05684 0.10304,0.08034 l 1.004643,-1.044437 c -0.0226,-0.03552 -0.0333,-0.0614 -0.07728,-0.107122 l -1.339523,-1.392582 a 0.39720353,0.41293695 0 0 1 -0.05152,-0.508829 c 0.28265,-0.46519 0.498397,-0.979335 0.618241,-1.526486 a 0.39720353,0.41293695 0 0 1 0.386402,-0.321364 h 1.880484 c 0.07195,0 0.110208,-0.01679 0.154561,-0.02677 v -1.499704 c -0.04434,-0.01 -0.0826,-0.02678 -0.154561,-0.02678 H 38.540914 A 0.39720353,0.41293695 0 0 1 38.154512,29.049376 C 38.034668,28.502227 37.81892,27.988079 37.536271,27.522891 a 0.39720353,0.41293695 0 0 1 0.05152,-0.508827 l 1.339523,-1.392584 c 0.04397,-0.04572 0.05467,-0.07161 0.07728,-0.107122 L 37.99995,24.469925 c -0.03417,0.02349 -0.05906,0.03462 -0.10304,0.08035 l -1.339524,1.392582 a 0.39720353,0.41293695 0 0 1 -0.489441,0.05356 C 35.620481,25.702566 35.125923,25.478273 34.599621,25.353684 A 0.39720353,0.41293695 0 0 1 34.2905,24.951977 v -1.954972 c 0,-0.07481 -0.01615,-0.114573 -0.02576,-0.160683 z m 0.721282,4.525894 c 1.477045,0 2.679047,1.249616 2.679047,2.785166 0,1.53555 -1.202002,2.785166 -2.679047,2.785166 -1.477043,0 -2.679047,-1.249616 -2.679047,-2.785166 0,-1.53555 1.202004,-2.785166 2.679047,-2.785166 z" />
</svg>
